<?xml version="1.0" encoding="utf-8" standalone="no"?>
<!DOCTYPE svg PUBLIC "-//W3C//DTD SVG 1.1//EN"
  "http://www.w3.org/Graphics/SVG/1.1/DTD/svg11.dtd">
<svg xmlns:xlink="http://www.w3.org/1999/xlink" width="460.8pt" height="345.6pt" viewBox="0 0 460.8 345.6" xmlns="http://www.w3.org/2000/svg" version="1.1">
 <metadata>
  <rdf:RDF xmlns:dc="http://purl.org/dc/elements/1.1/" xmlns:cc="http://creativecommons.org/ns#" xmlns:rdf="http://www.w3.org/1999/02/22-rdf-syntax-ns#">
   <cc:Work>
    <dc:type rdf:resource="http://purl.org/dc/dcmitype/StillImage"/>
    <dc:date>2024-02-22T13:40:09.237732</dc:date>
    <dc:format>image/svg+xml</dc:format>
    <dc:creator>
     <cc:Agent>
      <dc:title>Matplotlib v3.7.1, https://matplotlib.org/</dc:title>
     </cc:Agent>
    </dc:creator>
   </cc:Work>
  </rdf:RDF>
 </metadata>
 <defs>
  <style type="text/css">*{stroke-linejoin: round; stroke-linecap: butt}</style>
 </defs>
 <g id="figure_1">
  <g id="patch_1">
   <path d="M 0 345.6 
L 460.8 345.6 
L 460.8 0 
L 0 0 
z
" style="fill: #ffffff"/>
  </g>
  <g id="axes_1">
   <g id="patch_2">
    <path d="M 57.6 307.584 
L 414.72 307.584 
L 414.72 41.472 
L 57.6 41.472 
z
" style="fill: #ffffff"/>
   </g>
   <g id="matplotlib.axis_1">
    <g id="xtick_1">
     <g id="line2d_1">
      <defs>
       <path id="m5bc3ace3cf" d="M 0 0 
L 0 3.5 
" style="stroke: #000000; stroke-width: 0.8"/>
      </defs>
      <g>
       <use xlink:href="#m5bc3ace3cf" x="73.832727" y="307.584" style="stroke: #000000; stroke-width: 0.8"/>
      </g>
     </g>
     <g id="text_1">
      <!-- 0 -->
      <g transform="translate(70.651477 322.182437) scale(0.1 -0.1)">
       <defs>
        <path id="DejaVuSans-30" d="M 2034 4250 
Q 1547 4250 1301 3770 
Q 1056 3291 1056 2328 
Q 1056 1369 1301 889 
Q 1547 409 2034 409 
Q 2525 409 2770 889 
Q 3016 1369 3016 2328 
Q 3016 3291 2770 3770 
Q 2525 4250 2034 4250 
z
M 2034 4750 
Q 2819 4750 3233 4129 
Q 3647 3509 3647 2328 
Q 3647 1150 3233 529 
Q 2819 -91 2034 -91 
Q 1250 -91 836 529 
Q 422 1150 422 2328 
Q 422 3509 836 4129 
Q 1250 4750 2034 4750 
z
" transform="scale(0.015625)"/>
       </defs>
       <use xlink:href="#DejaVuSans-30"/>
      </g>
     </g>
    </g>
    <g id="xtick_2">
     <g id="line2d_2">
      <g>
       <use xlink:href="#m5bc3ace3cf" x="128.858921" y="307.584" style="stroke: #000000; stroke-width: 0.8"/>
      </g>
     </g>
     <g id="text_2">
      <!-- 10 -->
      <g transform="translate(122.496421 322.182437) scale(0.1 -0.1)">
       <defs>
        <path id="DejaVuSans-31" d="M 794 531 
L 1825 531 
L 1825 4091 
L 703 3866 
L 703 4441 
L 1819 4666 
L 2450 4666 
L 2450 531 
L 3481 531 
L 3481 0 
L 794 0 
L 794 531 
z
" transform="scale(0.015625)"/>
       </defs>
       <use xlink:href="#DejaVuSans-31"/>
       <use xlink:href="#DejaVuSans-30" x="63.623047"/>
      </g>
     </g>
    </g>
    <g id="xtick_3">
     <g id="line2d_3">
      <g>
       <use xlink:href="#m5bc3ace3cf" x="183.885116" y="307.584" style="stroke: #000000; stroke-width: 0.8"/>
      </g>
     </g>
     <g id="text_3">
      <!-- 20 -->
      <g transform="translate(177.522616 322.182437) scale(0.1 -0.1)">
       <defs>
        <path id="DejaVuSans-32" d="M 1228 531 
L 3431 531 
L 3431 0 
L 469 0 
L 469 531 
Q 828 903 1448 1529 
Q 2069 2156 2228 2338 
Q 2531 2678 2651 2914 
Q 2772 3150 2772 3378 
Q 2772 3750 2511 3984 
Q 2250 4219 1831 4219 
Q 1534 4219 1204 4116 
Q 875 4013 500 3803 
L 500 4441 
Q 881 4594 1212 4672 
Q 1544 4750 1819 4750 
Q 2544 4750 2975 4387 
Q 3406 4025 3406 3419 
Q 3406 3131 3298 2873 
Q 3191 2616 2906 2266 
Q 2828 2175 2409 1742 
Q 1991 1309 1228 531 
z
" transform="scale(0.015625)"/>
       </defs>
       <use xlink:href="#DejaVuSans-32"/>
       <use xlink:href="#DejaVuSans-30" x="63.623047"/>
      </g>
     </g>
    </g>
    <g id="xtick_4">
     <g id="line2d_4">
      <g>
       <use xlink:href="#m5bc3ace3cf" x="238.91131" y="307.584" style="stroke: #000000; stroke-width: 0.8"/>
      </g>
     </g>
     <g id="text_4">
      <!-- 30 -->
      <g transform="translate(232.54881 322.182437) scale(0.1 -0.1)">
       <defs>
        <path id="DejaVuSans-33" d="M 2597 2516 
Q 3050 2419 3304 2112 
Q 3559 1806 3559 1356 
Q 3559 666 3084 287 
Q 2609 -91 1734 -91 
Q 1441 -91 1130 -33 
Q 819 25 488 141 
L 488 750 
Q 750 597 1062 519 
Q 1375 441 1716 441 
Q 2309 441 2620 675 
Q 2931 909 2931 1356 
Q 2931 1769 2642 2001 
Q 2353 2234 1838 2234 
L 1294 2234 
L 1294 2753 
L 1863 2753 
Q 2328 2753 2575 2939 
Q 2822 3125 2822 3475 
Q 2822 3834 2567 4026 
Q 2313 4219 1838 4219 
Q 1578 4219 1281 4162 
Q 984 4106 628 3988 
L 628 4550 
Q 988 4650 1302 4700 
Q 1616 4750 1894 4750 
Q 2613 4750 3031 4423 
Q 3450 4097 3450 3541 
Q 3450 3153 3228 2886 
Q 3006 2619 2597 2516 
z
" transform="scale(0.015625)"/>
       </defs>
       <use xlink:href="#DejaVuSans-33"/>
       <use xlink:href="#DejaVuSans-30" x="63.623047"/>
      </g>
     </g>
    </g>
    <g id="xtick_5">
     <g id="line2d_5">
      <g>
       <use xlink:href="#m5bc3ace3cf" x="293.937504" y="307.584" style="stroke: #000000; stroke-width: 0.8"/>
      </g>
     </g>
     <g id="text_5">
      <!-- 40 -->
      <g transform="translate(287.575004 322.182437) scale(0.1 -0.1)">
       <defs>
        <path id="DejaVuSans-34" d="M 2419 4116 
L 825 1625 
L 2419 1625 
L 2419 4116 
z
M 2253 4666 
L 3047 4666 
L 3047 1625 
L 3713 1625 
L 3713 1100 
L 3047 1100 
L 3047 0 
L 2419 0 
L 2419 1100 
L 313 1100 
L 313 1709 
L 2253 4666 
z
" transform="scale(0.015625)"/>
       </defs>
       <use xlink:href="#DejaVuSans-34"/>
       <use xlink:href="#DejaVuSans-30" x="63.623047"/>
      </g>
     </g>
    </g>
    <g id="xtick_6">
     <g id="line2d_6">
      <g>
       <use xlink:href="#m5bc3ace3cf" x="348.963698" y="307.584" style="stroke: #000000; stroke-width: 0.8"/>
      </g>
     </g>
     <g id="text_6">
      <!-- 50 -->
      <g transform="translate(342.601198 322.182437) scale(0.1 -0.1)">
       <defs>
        <path id="DejaVuSans-35" d="M 691 4666 
L 3169 4666 
L 3169 4134 
L 1269 4134 
L 1269 2991 
Q 1406 3038 1543 3061 
Q 1681 3084 1819 3084 
Q 2600 3084 3056 2656 
Q 3513 2228 3513 1497 
Q 3513 744 3044 326 
Q 2575 -91 1722 -91 
Q 1428 -91 1123 -41 
Q 819 9 494 109 
L 494 744 
Q 775 591 1075 516 
Q 1375 441 1709 441 
Q 2250 441 2565 725 
Q 2881 1009 2881 1497 
Q 2881 1984 2565 2268 
Q 2250 2553 1709 2553 
Q 1456 2553 1204 2497 
Q 953 2441 691 2322 
L 691 4666 
z
" transform="scale(0.015625)"/>
       </defs>
       <use xlink:href="#DejaVuSans-35"/>
       <use xlink:href="#DejaVuSans-30" x="63.623047"/>
      </g>
     </g>
    </g>
    <g id="xtick_7">
     <g id="line2d_7">
      <g>
       <use xlink:href="#m5bc3ace3cf" x="403.989892" y="307.584" style="stroke: #000000; stroke-width: 0.8"/>
      </g>
     </g>
     <g id="text_7">
      <!-- 60 -->
      <g transform="translate(397.627392 322.182437) scale(0.1 -0.1)">
       <defs>
        <path id="DejaVuSans-36" d="M 2113 2584 
Q 1688 2584 1439 2293 
Q 1191 2003 1191 1497 
Q 1191 994 1439 701 
Q 1688 409 2113 409 
Q 2538 409 2786 701 
Q 3034 994 3034 1497 
Q 3034 2003 2786 2293 
Q 2538 2584 2113 2584 
z
M 3366 4563 
L 3366 3988 
Q 3128 4100 2886 4159 
Q 2644 4219 2406 4219 
Q 1781 4219 1451 3797 
Q 1122 3375 1075 2522 
Q 1259 2794 1537 2939 
Q 1816 3084 2150 3084 
Q 2853 3084 3261 2657 
Q 3669 2231 3669 1497 
Q 3669 778 3244 343 
Q 2819 -91 2113 -91 
Q 1303 -91 875 529 
Q 447 1150 447 2328 
Q 447 3434 972 4092 
Q 1497 4750 2381 4750 
Q 2619 4750 2861 4703 
Q 3103 4656 3366 4563 
z
" transform="scale(0.015625)"/>
       </defs>
       <use xlink:href="#DejaVuSans-36"/>
       <use xlink:href="#DejaVuSans-30" x="63.623047"/>
      </g>
     </g>
    </g>
   </g>
   <g id="matplotlib.axis_2">
    <g id="ytick_1">
     <g id="line2d_8">
      <defs>
       <path id="m0f38b2471f" d="M 0 0 
L -3.5 0 
" style="stroke: #000000; stroke-width: 0.8"/>
      </defs>
      <g>
       <use xlink:href="#m0f38b2471f" x="57.6" y="285.867852" style="stroke: #000000; stroke-width: 0.8"/>
      </g>
     </g>
     <g id="text_8">
      <!-- 0.5 -->
      <g transform="translate(34.696875 289.667071) scale(0.1 -0.1)">
       <defs>
        <path id="DejaVuSans-2e" d="M 684 794 
L 1344 794 
L 1344 0 
L 684 0 
L 684 794 
z
" transform="scale(0.015625)"/>
       </defs>
       <use xlink:href="#DejaVuSans-30"/>
       <use xlink:href="#DejaVuSans-2e" x="63.623047"/>
       <use xlink:href="#DejaVuSans-35" x="95.410156"/>
      </g>
     </g>
    </g>
    <g id="ytick_2">
     <g id="line2d_9">
      <g>
       <use xlink:href="#m0f38b2471f" x="57.6" y="236.688064" style="stroke: #000000; stroke-width: 0.8"/>
      </g>
     </g>
     <g id="text_9">
      <!-- 1.0 -->
      <g transform="translate(34.696875 240.487283) scale(0.1 -0.1)">
       <use xlink:href="#DejaVuSans-31"/>
       <use xlink:href="#DejaVuSans-2e" x="63.623047"/>
       <use xlink:href="#DejaVuSans-30" x="95.410156"/>
      </g>
     </g>
    </g>
    <g id="ytick_3">
     <g id="line2d_10">
      <g>
       <use xlink:href="#m0f38b2471f" x="57.6" y="187.508277" style="stroke: #000000; stroke-width: 0.8"/>
      </g>
     </g>
     <g id="text_10">
      <!-- 1.5 -->
      <g transform="translate(34.696875 191.307495) scale(0.1 -0.1)">
       <use xlink:href="#DejaVuSans-31"/>
       <use xlink:href="#DejaVuSans-2e" x="63.623047"/>
       <use xlink:href="#DejaVuSans-35" x="95.410156"/>
      </g>
     </g>
    </g>
    <g id="ytick_4">
     <g id="line2d_11">
      <g>
       <use xlink:href="#m0f38b2471f" x="57.6" y="138.328489" style="stroke: #000000; stroke-width: 0.8"/>
      </g>
     </g>
     <g id="text_11">
      <!-- 2.0 -->
      <g transform="translate(34.696875 142.127708) scale(0.1 -0.1)">
       <use xlink:href="#DejaVuSans-32"/>
       <use xlink:href="#DejaVuSans-2e" x="63.623047"/>
       <use xlink:href="#DejaVuSans-30" x="95.410156"/>
      </g>
     </g>
    </g>
    <g id="ytick_5">
     <g id="line2d_12">
      <g>
       <use xlink:href="#m0f38b2471f" x="57.6" y="89.148701" style="stroke: #000000; stroke-width: 0.8"/>
      </g>
     </g>
     <g id="text_12">
      <!-- 2.5 -->
      <g transform="translate(34.696875 92.94792) scale(0.1 -0.1)">
       <use xlink:href="#DejaVuSans-32"/>
       <use xlink:href="#DejaVuSans-2e" x="63.623047"/>
       <use xlink:href="#DejaVuSans-35" x="95.410156"/>
      </g>
     </g>
    </g>
   </g>
   <g id="line2d_13">
    <path d="M 73.832727 140.301073 
L 79.335347 190.964715 
L 84.837966 202.193005 
L 90.340586 217.16612 
L 95.843205 225.953526 
L 101.345824 226.407265 
L 106.848444 232.225114 
L 112.351063 237.726679 
L 117.853683 244.035182 
L 123.356302 244.781958 
L 128.858921 251.825553 
L 134.361541 254.641939 
L 139.86416 259.602321 
L 145.36678 261.759981 
L 150.869399 264.361918 
L 156.372018 267.711087 
L 161.874638 265.104517 
L 167.377257 268.403469 
L 172.879877 270.024103 
L 178.382496 268.480236 
L 183.885116 274.366731 
L 189.387735 276.032482 
L 194.890354 276.288296 
L 200.392974 279.441998 
L 205.895593 279.623781 
L 211.398213 275.895642 
L 216.900832 278.716376 
L 222.403451 280.298908 
L 227.906071 282.513449 
L 233.40869 283.130656 
L 238.91131 282.415807 
L 244.413929 284.172883 
L 249.916549 284.960977 
L 255.419168 286.327048 
L 260.921787 287.356164 
L 266.424407 288.524018 
L 271.927026 289.034219 
L 277.429646 286.706614 
L 282.932265 288.527051 
L 288.434884 291.595396 
L 293.937504 290.801404 
L 299.440123 290.231506 
L 304.942743 290.164278 
L 310.445362 290.493076 
L 315.947982 292.531324 
L 321.450601 293.641203 
L 326.95322 293.04829 
L 332.45584 293.398875 
L 337.958459 292.305509 
L 343.461079 293.292032 
L 348.963698 292.992214 
L 354.466317 294.04553 
L 359.968937 291.241253 
L 365.471556 295.026348 
L 370.974176 291.609843 
L 376.476795 293.042902 
L 381.979414 294.983559 
L 387.482034 292.794386 
L 392.984653 295.287298 
L 398.487273 295.488 
" clip-path="url(#p12a30b96c1)" style="fill: none; stroke: #1f77b4; stroke-width: 1.5; stroke-linecap: square"/>
   </g>
   <g id="line2d_14">
    <path d="M 73.832727 145.136221 
L 79.335347 186.276293 
L 84.837966 196.007956 
L 90.340586 204.311136 
L 95.843205 206.778765 
L 101.345824 208.181004 
L 106.848444 211.414144 
L 112.351063 212.255746 
L 117.853683 216.838568 
L 123.356302 218.894734 
L 128.858921 218.538843 
L 134.361541 220.019933 
L 139.86416 224.539386 
L 145.36678 221.075931 
L 150.869399 220.743559 
L 156.372018 222.748622 
L 161.874638 226.016633 
L 167.377257 231.239748 
L 172.879877 228.457995 
L 178.382496 228.766967 
L 183.885116 223.775702 
L 189.387735 228.039893 
L 194.890354 230.334876 
L 200.392974 236.690163 
L 205.895593 236.729649 
L 211.398213 239.966012 
L 216.900832 234.561588 
L 222.403451 229.625149 
L 227.906071 236.995093 
L 233.40869 229.731792 
L 238.91131 233.000412 
L 244.413929 234.510541 
L 249.916549 237.62141 
L 255.419168 239.028854 
L 260.921787 243.647543 
L 266.424407 240.634498 
L 271.927026 239.920689 
L 277.429646 241.000037 
L 282.932265 238.138017 
L 288.434884 240.037739 
L 293.937504 237.871665 
L 299.440123 235.891464 
L 304.942743 236.266111 
L 310.445362 241.114442 
L 315.947982 240.240524 
L 321.450601 238.072791 
L 326.95322 242.699342 
L 332.45584 235.055757 
L 337.958459 238.865976 
L 343.461079 236.059909 
L 348.963698 236.538701 
L 354.466317 239.724966 
L 359.968937 232.298366 
L 365.471556 232.258258 
L 370.974176 228.982524 
L 376.476795 233.096852 
L 381.979414 234.529668 
L 387.482034 237.727242 
L 392.984653 240.193729 
L 398.487273 239.510712 
" clip-path="url(#p12a30b96c1)" style="fill: none; stroke: #ff7f0e; stroke-width: 1.5; stroke-linecap: square"/>
   </g>
   <g id="line2d_15">
    <path d="M 73.832727 134.599701 
L 79.335347 178.976765 
L 84.837966 192.155545 
L 90.340586 201.729474 
L 95.843205 204.891576 
L 101.345824 206.561717 
L 106.848444 209.915552 
L 112.351063 210.593416 
L 117.853683 215.429468 
L 123.356302 217.549736 
L 128.858921 217.601316 
L 134.361541 218.91846 
L 139.86416 223.522233 
L 145.36678 220.922254 
L 150.869399 219.367319 
L 156.372018 222.357718 
L 161.874638 225.570366 
L 167.377257 230.11457 
L 172.879877 228.380517 
L 178.382496 228.499097 
L 183.885116 223.465871 
L 189.387735 228.441545 
L 194.890354 230.999856 
L 200.392974 236.257697 
L 205.895593 236.184779 
L 211.398213 239.697254 
L 216.900832 234.559811 
L 222.403451 229.893497 
L 227.906071 238.026534 
L 233.40869 232.877295 
L 238.91131 236.386168 
L 244.413929 237.557209 
L 249.916549 239.279994 
L 255.419168 239.519722 
L 260.921787 242.652169 
L 266.424407 242.976041 
L 271.927026 243.094951 
L 277.429646 243.207499 
L 282.932265 241.989439 
L 288.434884 243.036829 
L 293.937504 240.351995 
L 299.440123 238.966784 
L 304.942743 239.97786 
L 310.445362 243.698132 
L 315.947982 243.140479 
L 321.450601 240.574021 
L 326.95322 242.699941 
L 332.45584 236.71348 
L 337.958459 236.677762 
L 343.461079 235.8726 
L 348.963698 237.585436 
L 354.466317 239.674414 
L 359.968937 232.308548 
L 365.471556 233.168985 
L 370.974176 229.642183 
L 376.476795 233.01929 
L 381.979414 235.318798 
L 387.482034 239.537393 
L 392.984653 240.953088 
L 398.487273 241.280616 
" clip-path="url(#p12a30b96c1)" style="fill: none; stroke: #2ca02c; stroke-width: 1.5; stroke-linecap: square"/>
   </g>
   <g id="line2d_16">
    <path d="M 73.832727 53.568 
L 79.335347 86.571961 
L 84.837966 108.34425 
L 90.340586 118.585245 
L 95.843205 122.999801 
L 101.345824 125.463191 
L 106.848444 132.418175 
L 112.351063 133.800648 
L 117.853683 126.498635 
L 123.356302 126.172947 
L 128.858921 118.480561 
L 134.361541 123.139669 
L 139.86416 123.599064 
L 145.36678 119.097588 
L 150.869399 122.415349 
L 156.372018 117.526194 
L 161.874638 112.77128 
L 167.377257 122.606786 
L 172.879877 116.589719 
L 178.382496 110.560645 
L 183.885116 110.014701 
L 189.387735 115.391325 
L 194.890354 111.867918 
L 200.392974 119.36624 
L 205.895593 108.443646 
L 211.398213 107.561142 
L 216.900832 110.123861 
L 222.403451 106.838624 
L 227.906071 102.799832 
L 233.40869 100.681924 
L 238.91131 108.95436 
L 244.413929 111.888743 
L 249.916549 105.360995 
L 255.419168 101.834351 
L 260.921787 104.189298 
L 266.424407 101.953818 
L 271.927026 109.883371 
L 277.429646 101.977314 
L 282.932265 101.721973 
L 288.434884 103.339071 
L 293.937504 97.922228 
L 299.440123 88.887891 
L 304.942743 90.804896 
L 310.445362 97.040923 
L 315.947982 109.465937 
L 321.450601 101.511482 
L 326.95322 92.737645 
L 332.45584 104.490929 
L 337.958459 93.194896 
L 343.461079 98.488177 
L 348.963698 91.251622 
L 354.466317 108.805312 
L 359.968937 122.57385 
L 365.471556 110.423077 
L 370.974176 94.764583 
L 376.476795 108.017804 
L 381.979414 117.946666 
L 387.482034 105.53051 
L 392.984653 107.242636 
L 398.487273 101.339282 
" clip-path="url(#p12a30b96c1)" style="fill: none; stroke: #d62728; stroke-width: 1.5; stroke-linecap: square"/>
   </g>
   <g id="patch_3">
    <path d="M 57.6 307.584 
L 57.6 41.472 
" style="fill: none; stroke: #000000; stroke-width: 0.8; stroke-linejoin: miter; stroke-linecap: square"/>
   </g>
   <g id="patch_4">
    <path d="M 414.72 307.584 
L 414.72 41.472 
" style="fill: none; stroke: #000000; stroke-width: 0.8; stroke-linejoin: miter; stroke-linecap: square"/>
   </g>
   <g id="patch_5">
    <path d="M 57.6 307.584 
L 414.72 307.584 
" style="fill: none; stroke: #000000; stroke-width: 0.8; stroke-linejoin: miter; stroke-linecap: square"/>
   </g>
   <g id="patch_6">
    <path d="M 57.6 41.472 
L 414.72 41.472 
" style="fill: none; stroke: #000000; stroke-width: 0.8; stroke-linejoin: miter; stroke-linecap: square"/>
   </g>
   <g id="text_13">
    <!-- Losses loss_final -->
    <g transform="translate(186.760312 35.472) scale(0.12 -0.12)">
     <defs>
      <path id="DejaVuSans-4c" d="M 628 4666 
L 1259 4666 
L 1259 531 
L 3531 531 
L 3531 0 
L 628 0 
L 628 4666 
z
" transform="scale(0.015625)"/>
      <path id="DejaVuSans-6f" d="M 1959 3097 
Q 1497 3097 1228 2736 
Q 959 2375 959 1747 
Q 959 1119 1226 758 
Q 1494 397 1959 397 
Q 2419 397 2687 759 
Q 2956 1122 2956 1747 
Q 2956 2369 2687 2733 
Q 2419 3097 1959 3097 
z
M 1959 3584 
Q 2709 3584 3137 3096 
Q 3566 2609 3566 1747 
Q 3566 888 3137 398 
Q 2709 -91 1959 -91 
Q 1206 -91 779 398 
Q 353 888 353 1747 
Q 353 2609 779 3096 
Q 1206 3584 1959 3584 
z
" transform="scale(0.015625)"/>
      <path id="DejaVuSans-73" d="M 2834 3397 
L 2834 2853 
Q 2591 2978 2328 3040 
Q 2066 3103 1784 3103 
Q 1356 3103 1142 2972 
Q 928 2841 928 2578 
Q 928 2378 1081 2264 
Q 1234 2150 1697 2047 
L 1894 2003 
Q 2506 1872 2764 1633 
Q 3022 1394 3022 966 
Q 3022 478 2636 193 
Q 2250 -91 1575 -91 
Q 1294 -91 989 -36 
Q 684 19 347 128 
L 347 722 
Q 666 556 975 473 
Q 1284 391 1588 391 
Q 1994 391 2212 530 
Q 2431 669 2431 922 
Q 2431 1156 2273 1281 
Q 2116 1406 1581 1522 
L 1381 1569 
Q 847 1681 609 1914 
Q 372 2147 372 2553 
Q 372 3047 722 3315 
Q 1072 3584 1716 3584 
Q 2034 3584 2315 3537 
Q 2597 3491 2834 3397 
z
" transform="scale(0.015625)"/>
      <path id="DejaVuSans-65" d="M 3597 1894 
L 3597 1613 
L 953 1613 
Q 991 1019 1311 708 
Q 1631 397 2203 397 
Q 2534 397 2845 478 
Q 3156 559 3463 722 
L 3463 178 
Q 3153 47 2828 -22 
Q 2503 -91 2169 -91 
Q 1331 -91 842 396 
Q 353 884 353 1716 
Q 353 2575 817 3079 
Q 1281 3584 2069 3584 
Q 2775 3584 3186 3129 
Q 3597 2675 3597 1894 
z
M 3022 2063 
Q 3016 2534 2758 2815 
Q 2500 3097 2075 3097 
Q 1594 3097 1305 2825 
Q 1016 2553 972 2059 
L 3022 2063 
z
" transform="scale(0.015625)"/>
      <path id="DejaVuSans-20" transform="scale(0.015625)"/>
      <path id="DejaVuSans-6c" d="M 603 4863 
L 1178 4863 
L 1178 0 
L 603 0 
L 603 4863 
z
" transform="scale(0.015625)"/>
      <path id="DejaVuSans-5f" d="M 3263 -1063 
L 3263 -1509 
L -63 -1509 
L -63 -1063 
L 3263 -1063 
z
" transform="scale(0.015625)"/>
      <path id="DejaVuSans-66" d="M 2375 4863 
L 2375 4384 
L 1825 4384 
Q 1516 4384 1395 4259 
Q 1275 4134 1275 3809 
L 1275 3500 
L 2222 3500 
L 2222 3053 
L 1275 3053 
L 1275 0 
L 697 0 
L 697 3053 
L 147 3053 
L 147 3500 
L 697 3500 
L 697 3744 
Q 697 4328 969 4595 
Q 1241 4863 1831 4863 
L 2375 4863 
z
" transform="scale(0.015625)"/>
      <path id="DejaVuSans-69" d="M 603 3500 
L 1178 3500 
L 1178 0 
L 603 0 
L 603 3500 
z
M 603 4863 
L 1178 4863 
L 1178 4134 
L 603 4134 
L 603 4863 
z
" transform="scale(0.015625)"/>
      <path id="DejaVuSans-6e" d="M 3513 2113 
L 3513 0 
L 2938 0 
L 2938 2094 
Q 2938 2591 2744 2837 
Q 2550 3084 2163 3084 
Q 1697 3084 1428 2787 
Q 1159 2491 1159 1978 
L 1159 0 
L 581 0 
L 581 3500 
L 1159 3500 
L 1159 2956 
Q 1366 3272 1645 3428 
Q 1925 3584 2291 3584 
Q 2894 3584 3203 3211 
Q 3513 2838 3513 2113 
z
" transform="scale(0.015625)"/>
      <path id="DejaVuSans-61" d="M 2194 1759 
Q 1497 1759 1228 1600 
Q 959 1441 959 1056 
Q 959 750 1161 570 
Q 1363 391 1709 391 
Q 2188 391 2477 730 
Q 2766 1069 2766 1631 
L 2766 1759 
L 2194 1759 
z
M 3341 1997 
L 3341 0 
L 2766 0 
L 2766 531 
Q 2569 213 2275 61 
Q 1981 -91 1556 -91 
Q 1019 -91 701 211 
Q 384 513 384 1019 
Q 384 1609 779 1909 
Q 1175 2209 1959 2209 
L 2766 2209 
L 2766 2266 
Q 2766 2663 2505 2880 
Q 2244 3097 1772 3097 
Q 1472 3097 1187 3025 
Q 903 2953 641 2809 
L 641 3341 
Q 956 3463 1253 3523 
Q 1550 3584 1831 3584 
Q 2591 3584 2966 3190 
Q 3341 2797 3341 1997 
z
" transform="scale(0.015625)"/>
     </defs>
     <use xlink:href="#DejaVuSans-4c"/>
     <use xlink:href="#DejaVuSans-6f" x="53.962891"/>
     <use xlink:href="#DejaVuSans-73" x="115.144531"/>
     <use xlink:href="#DejaVuSans-73" x="167.244141"/>
     <use xlink:href="#DejaVuSans-65" x="219.34375"/>
     <use xlink:href="#DejaVuSans-73" x="280.867188"/>
     <use xlink:href="#DejaVuSans-20" x="332.966797"/>
     <use xlink:href="#DejaVuSans-6c" x="364.753906"/>
     <use xlink:href="#DejaVuSans-6f" x="392.537109"/>
     <use xlink:href="#DejaVuSans-73" x="453.71875"/>
     <use xlink:href="#DejaVuSans-73" x="505.818359"/>
     <use xlink:href="#DejaVuSans-5f" x="557.917969"/>
     <use xlink:href="#DejaVuSans-66" x="607.917969"/>
     <use xlink:href="#DejaVuSans-69" x="643.123047"/>
     <use xlink:href="#DejaVuSans-6e" x="670.90625"/>
     <use xlink:href="#DejaVuSans-61" x="734.285156"/>
     <use xlink:href="#DejaVuSans-6c" x="795.564453"/>
    </g>
   </g>
   <g id="legend_1">
    <g id="patch_7">
     <path d="M 264.277813 205.523312 
L 407.72 205.523312 
Q 409.72 205.523312 409.72 203.523312 
L 409.72 145.532687 
Q 409.72 143.532687 407.72 143.532687 
L 264.277813 143.532687 
Q 262.277813 143.532687 262.277813 145.532687 
L 262.277813 203.523312 
Q 262.277813 205.523312 264.277813 205.523312 
z
" style="fill: #ffffff; opacity: 0.8; stroke: #cccccc; stroke-linejoin: miter"/>
    </g>
    <g id="line2d_17">
     <path d="M 266.277813 151.631125 
L 276.277813 151.631125 
L 286.277813 151.631125 
" style="fill: none; stroke: #1f77b4; stroke-width: 1.5; stroke-linecap: square"/>
    </g>
    <g id="text_14">
     <!-- Train loss -->
     <g transform="translate(294.277813 155.131125) scale(0.1 -0.1)">
      <defs>
       <path id="DejaVuSans-54" d="M -19 4666 
L 3928 4666 
L 3928 4134 
L 2272 4134 
L 2272 0 
L 1638 0 
L 1638 4134 
L -19 4134 
L -19 4666 
z
" transform="scale(0.015625)"/>
       <path id="DejaVuSans-72" d="M 2631 2963 
Q 2534 3019 2420 3045 
Q 2306 3072 2169 3072 
Q 1681 3072 1420 2755 
Q 1159 2438 1159 1844 
L 1159 0 
L 581 0 
L 581 3500 
L 1159 3500 
L 1159 2956 
Q 1341 3275 1631 3429 
Q 1922 3584 2338 3584 
Q 2397 3584 2469 3576 
Q 2541 3569 2628 3553 
L 2631 2963 
z
" transform="scale(0.015625)"/>
      </defs>
      <use xlink:href="#DejaVuSans-54"/>
      <use xlink:href="#DejaVuSans-72" x="46.333984"/>
      <use xlink:href="#DejaVuSans-61" x="87.447266"/>
      <use xlink:href="#DejaVuSans-69" x="148.726562"/>
      <use xlink:href="#DejaVuSans-6e" x="176.509766"/>
      <use xlink:href="#DejaVuSans-20" x="239.888672"/>
      <use xlink:href="#DejaVuSans-6c" x="271.675781"/>
      <use xlink:href="#DejaVuSans-6f" x="299.458984"/>
      <use xlink:href="#DejaVuSans-73" x="360.640625"/>
      <use xlink:href="#DejaVuSans-73" x="412.740234"/>
     </g>
    </g>
    <g id="line2d_18">
     <path d="M 266.277813 166.30925 
L 276.277813 166.30925 
L 286.277813 166.30925 
" style="fill: none; stroke: #ff7f0e; stroke-width: 1.5; stroke-linecap: square"/>
    </g>
    <g id="text_15">
     <!-- Test loss -->
     <g transform="translate(294.277813 169.80925) scale(0.1 -0.1)">
      <defs>
       <path id="DejaVuSans-74" d="M 1172 4494 
L 1172 3500 
L 2356 3500 
L 2356 3053 
L 1172 3053 
L 1172 1153 
Q 1172 725 1289 603 
Q 1406 481 1766 481 
L 2356 481 
L 2356 0 
L 1766 0 
Q 1100 0 847 248 
Q 594 497 594 1153 
L 594 3053 
L 172 3053 
L 172 3500 
L 594 3500 
L 594 4494 
L 1172 4494 
z
" transform="scale(0.015625)"/>
      </defs>
      <use xlink:href="#DejaVuSans-54"/>
      <use xlink:href="#DejaVuSans-65" x="44.083984"/>
      <use xlink:href="#DejaVuSans-73" x="105.607422"/>
      <use xlink:href="#DejaVuSans-74" x="157.707031"/>
      <use xlink:href="#DejaVuSans-20" x="196.916016"/>
      <use xlink:href="#DejaVuSans-6c" x="228.703125"/>
      <use xlink:href="#DejaVuSans-6f" x="256.486328"/>
      <use xlink:href="#DejaVuSans-73" x="317.667969"/>
      <use xlink:href="#DejaVuSans-73" x="369.767578"/>
     </g>
    </g>
    <g id="line2d_19">
     <path d="M 266.277813 180.987375 
L 276.277813 180.987375 
L 286.277813 180.987375 
" style="fill: none; stroke: #2ca02c; stroke-width: 1.5; stroke-linecap: square"/>
    </g>
    <g id="text_16">
     <!-- Loss in floor4_evening -->
     <g transform="translate(294.277813 184.487375) scale(0.1 -0.1)">
      <defs>
       <path id="DejaVuSans-76" d="M 191 3500 
L 800 3500 
L 1894 563 
L 2988 3500 
L 3597 3500 
L 2284 0 
L 1503 0 
L 191 3500 
z
" transform="scale(0.015625)"/>
       <path id="DejaVuSans-67" d="M 2906 1791 
Q 2906 2416 2648 2759 
Q 2391 3103 1925 3103 
Q 1463 3103 1205 2759 
Q 947 2416 947 1791 
Q 947 1169 1205 825 
Q 1463 481 1925 481 
Q 2391 481 2648 825 
Q 2906 1169 2906 1791 
z
M 3481 434 
Q 3481 -459 3084 -895 
Q 2688 -1331 1869 -1331 
Q 1566 -1331 1297 -1286 
Q 1028 -1241 775 -1147 
L 775 -588 
Q 1028 -725 1275 -790 
Q 1522 -856 1778 -856 
Q 2344 -856 2625 -561 
Q 2906 -266 2906 331 
L 2906 616 
Q 2728 306 2450 153 
Q 2172 0 1784 0 
Q 1141 0 747 490 
Q 353 981 353 1791 
Q 353 2603 747 3093 
Q 1141 3584 1784 3584 
Q 2172 3584 2450 3431 
Q 2728 3278 2906 2969 
L 2906 3500 
L 3481 3500 
L 3481 434 
z
" transform="scale(0.015625)"/>
      </defs>
      <use xlink:href="#DejaVuSans-4c"/>
      <use xlink:href="#DejaVuSans-6f" x="53.962891"/>
      <use xlink:href="#DejaVuSans-73" x="115.144531"/>
      <use xlink:href="#DejaVuSans-73" x="167.244141"/>
      <use xlink:href="#DejaVuSans-20" x="219.34375"/>
      <use xlink:href="#DejaVuSans-69" x="251.130859"/>
      <use xlink:href="#DejaVuSans-6e" x="278.914062"/>
      <use xlink:href="#DejaVuSans-20" x="342.292969"/>
      <use xlink:href="#DejaVuSans-66" x="374.080078"/>
      <use xlink:href="#DejaVuSans-6c" x="409.285156"/>
      <use xlink:href="#DejaVuSans-6f" x="437.068359"/>
      <use xlink:href="#DejaVuSans-6f" x="498.25"/>
      <use xlink:href="#DejaVuSans-72" x="559.431641"/>
      <use xlink:href="#DejaVuSans-34" x="600.544922"/>
      <use xlink:href="#DejaVuSans-5f" x="664.167969"/>
      <use xlink:href="#DejaVuSans-65" x="714.167969"/>
      <use xlink:href="#DejaVuSans-76" x="775.691406"/>
      <use xlink:href="#DejaVuSans-65" x="834.871094"/>
      <use xlink:href="#DejaVuSans-6e" x="896.394531"/>
      <use xlink:href="#DejaVuSans-69" x="959.773438"/>
      <use xlink:href="#DejaVuSans-6e" x="987.556641"/>
      <use xlink:href="#DejaVuSans-67" x="1050.935547"/>
     </g>
    </g>
    <g id="line2d_20">
     <path d="M 266.277813 195.943625 
L 276.277813 195.943625 
L 286.277813 195.943625 
" style="fill: none; stroke: #d62728; stroke-width: 1.5; stroke-linecap: square"/>
    </g>
    <g id="text_17">
     <!-- Loss in floor4 -->
     <g transform="translate(294.277813 199.443625) scale(0.1 -0.1)">
      <use xlink:href="#DejaVuSans-4c"/>
      <use xlink:href="#DejaVuSans-6f" x="53.962891"/>
      <use xlink:href="#DejaVuSans-73" x="115.144531"/>
      <use xlink:href="#DejaVuSans-73" x="167.244141"/>
      <use xlink:href="#DejaVuSans-20" x="219.34375"/>
      <use xlink:href="#DejaVuSans-69" x="251.130859"/>
      <use xlink:href="#DejaVuSans-6e" x="278.914062"/>
      <use xlink:href="#DejaVuSans-20" x="342.292969"/>
      <use xlink:href="#DejaVuSans-66" x="374.080078"/>
      <use xlink:href="#DejaVuSans-6c" x="409.285156"/>
      <use xlink:href="#DejaVuSans-6f" x="437.068359"/>
      <use xlink:href="#DejaVuSans-6f" x="498.25"/>
      <use xlink:href="#DejaVuSans-72" x="559.431641"/>
      <use xlink:href="#DejaVuSans-34" x="600.544922"/>
     </g>
    </g>
   </g>
  </g>
 </g>
 <defs>
  <clipPath id="p12a30b96c1">
   <rect x="57.6" y="41.472" width="357.12" height="266.112"/>
  </clipPath>
 </defs>
</svg>
